<svg width="175" height="21" viewBox="0 0 175 21" fill="none" xmlns="http://www.w3.org/2000/svg">
<g clip-path="url(#clip0_135_42)">
<path d="M0 20.9893V0.183105H14.6534V3.57541H4.36691V8.90618H13.4566V12.2662H4.36691V20.9893H0Z" fill="black"/>
<path d="M17.0474 20.9893V0.183105H21.4143V17.6293H31.6684V20.9893H17.0474Z" fill="black"/>
<path d="M33.415 20.9893L41.3725 0.183105H46.16L54.0851 20.9893H49.5564L47.5832 15.9816H39.9169L37.976 20.9893H33.415ZM40.5638 12.6216H46.9363L43.7339 4.25387L40.5638 12.6216Z" fill="black"/>
<path d="M59.4868 20.9893V3.54311H53.082V0.183105H70.2262V3.54311H63.8538V20.9893H59.4868Z" fill="black"/>
<path d="M72.6201 20.9893V0.183105H82.3891C84.028 0.183105 85.3704 0.495413 86.4163 1.12003C87.4622 1.74464 88.244 2.59541 88.7615 3.67234C89.2791 4.74926 89.5379 5.97695 89.5379 7.35541C89.5379 8.73387 89.2413 9.99387 88.6483 11.0708C88.0553 12.1477 87.2142 12.9823 86.1252 13.5746C85.0362 14.167 83.7477 14.4631 82.2597 14.4631H76.987V20.9893H72.6201ZM76.987 11.0062H81.3539C82.6047 11.0062 83.5482 10.6777 84.1843 10.0208C84.8205 9.36387 85.1386 8.47541 85.1386 7.35541C85.1386 6.14926 84.8367 5.22849 84.2329 4.5931C83.6291 3.95772 82.7233 3.64003 81.5157 3.64003H76.987V11.0062Z" fill="black"/>
<path d="M129.39 20.9893V0.183105H133.757V20.9893H129.39Z" fill="black"/>
<path d="M137.445 20.9893V0.183105H141.229L151.095 14.0431V0.183105H155.462V20.9893H151.678L141.812 7.12926V20.9893H137.445Z" fill="black"/>
<path d="M164.261 20.9893V3.54311H157.856V0.183105H175V3.54311H168.628V20.9893H164.261Z" fill="black"/>
<path d="M97.3011 2.59C96.0395 4.81923 95.4088 7.44692 95.4088 10.4785C95.4088 13.51 96.0395 16.1377 97.3011 18.3669C97.8564 19.3469 98.5303 20.2138 99.2851 21H94.1957C92.5622 17.9469 91.7319 14.4469 91.7319 10.4785C91.7319 6.53154 92.5514 3.04231 94.1742 0H99.2473C98.5087 0.775385 97.8456 1.62615 97.3011 2.59Z" fill="black"/>
<path d="M120.812 2.59C122.074 4.81923 122.704 7.44692 122.704 10.4785C122.704 13.51 122.074 16.1377 120.812 18.3669C120.257 19.3469 119.583 20.2138 118.828 21H123.917C125.551 17.9469 126.381 14.4469 126.381 10.4785C126.381 6.51 125.562 3.04231 123.939 0H118.866C119.604 0.775385 120.268 1.62615 120.812 2.59Z" fill="black"/>
</g>
<defs>
<clipPath id="clip0_135_42">
<rect width="175" height="21" fill="white"/>
</clipPath>
</defs>
</svg>
